<mxfile host="65bd71144e">
    <diagram id="kCXVLdr2fKIXN68MSfml" name="Page-1">
        <mxGraphModel dx="872" dy="637" grid="1" gridSize="10" guides="1" tooltips="1" connect="1" arrows="1" fold="1" page="1" pageScale="1" pageWidth="850" pageHeight="1100" math="0" shadow="0">
            <root>
                <mxCell id="0"/>
                <mxCell id="1" parent="0"/>
                <mxCell id="2" value="login" style="shape=mxgraph.uml25.behaviorAction;html=1;rounded=1;absoluteArcSize=1;arcSize=10;align=left;spacingLeft=5;whiteSpace=wrap;" vertex="1" parent="1">
                    <mxGeometry x="330" y="60" width="190" height="60" as="geometry"/>
                </mxCell>
                <mxCell id="3" value="" style="ellipse;html=1;shape=startState;" vertex="1" parent="1">
                    <mxGeometry x="410" width="30" height="30" as="geometry"/>
                </mxCell>
                <mxCell id="4" value="" style="edgeStyle=orthogonalEdgeStyle;html=1;verticalAlign=bottom;endArrow=open;endSize=8;entryX=0.5;entryY=-0.017;entryDx=0;entryDy=0;entryPerimeter=0;" edge="1" source="3" parent="1" target="2">
                    <mxGeometry relative="1" as="geometry">
                        <mxPoint x="425" y="90" as="targetPoint"/>
                    </mxGeometry>
                </mxCell>
                <mxCell id="5" value="List all cars" style="rounded=1;whiteSpace=wrap;html=1;arcSize=40;" vertex="1" parent="1">
                    <mxGeometry x="365" y="160" width="120" height="40" as="geometry"/>
                </mxCell>
                <mxCell id="6" value="" style="edgeStyle=orthogonalEdgeStyle;html=1;verticalAlign=bottom;endArrow=open;endSize=8;entryX=0.5;entryY=0;entryDx=0;entryDy=0;" edge="1" source="5" parent="1" target="8">
                    <mxGeometry relative="1" as="geometry">
                        <mxPoint x="425" y="240" as="targetPoint"/>
                    </mxGeometry>
                </mxCell>
                <mxCell id="7" value="" style="edgeStyle=orthogonalEdgeStyle;html=1;verticalAlign=bottom;endArrow=open;endSize=8;exitX=0.5;exitY=1.021;exitDx=0;exitDy=0;exitPerimeter=0;entryX=0.5;entryY=0;entryDx=0;entryDy=0;" edge="1" parent="1" source="2" target="5">
                    <mxGeometry relative="1" as="geometry">
                        <mxPoint x="425" y="190" as="targetPoint"/>
                        <mxPoint x="425" y="130" as="sourcePoint"/>
                    </mxGeometry>
                </mxCell>
                <mxCell id="8" value="Choose a car" style="rounded=1;whiteSpace=wrap;html=1;arcSize=40;" vertex="1" parent="1">
                    <mxGeometry x="365" y="240" width="120" height="40" as="geometry"/>
                </mxCell>
                <mxCell id="9" value="" style="edgeStyle=orthogonalEdgeStyle;html=1;verticalAlign=bottom;endArrow=open;endSize=8;" edge="1" source="8" parent="1">
                    <mxGeometry relative="1" as="geometry">
                        <mxPoint x="425" y="310" as="targetPoint"/>
                    </mxGeometry>
                </mxCell>
                <mxCell id="10" value="&lt;div&gt;Fill required inforamtions&lt;/div&gt;" style="rounded=1;whiteSpace=wrap;html=1;arcSize=40;" vertex="1" parent="1">
                    <mxGeometry x="365" y="310" width="120" height="40" as="geometry"/>
                </mxCell>
                <mxCell id="11" value="" style="edgeStyle=orthogonalEdgeStyle;html=1;verticalAlign=bottom;endArrow=open;endSize=8;entryX=0.5;entryY=0;entryDx=0;entryDy=0;" edge="1" source="10" parent="1" target="12">
                    <mxGeometry relative="1" as="geometry">
                        <mxPoint x="425" y="380" as="targetPoint"/>
                    </mxGeometry>
                </mxCell>
                <mxCell id="12" value="Choose payment plan" style="rounded=1;whiteSpace=wrap;html=1;arcSize=40;" vertex="1" parent="1">
                    <mxGeometry x="365" y="380" width="120" height="40" as="geometry"/>
                </mxCell>
                <mxCell id="13" value="" style="edgeStyle=orthogonalEdgeStyle;html=1;verticalAlign=bottom;endArrow=open;endSize=8;entryX=0.5;entryY=0;entryDx=0;entryDy=0;" edge="1" source="12" parent="1" target="14">
                    <mxGeometry relative="1" as="geometry">
                        <mxPoint x="425" y="450" as="targetPoint"/>
                    </mxGeometry>
                </mxCell>
                <mxCell id="14" value="" style="rhombus;whiteSpace=wrap;html=1;" vertex="1" parent="1">
                    <mxGeometry x="385" y="450" width="80" height="40" as="geometry"/>
                </mxCell>
                <mxCell id="15" value="By Installments" style="edgeStyle=orthogonalEdgeStyle;html=1;align=left;verticalAlign=bottom;endArrow=open;endSize=8;" edge="1" source="14" parent="1" target="20">
                    <mxGeometry x="-1" relative="1" as="geometry">
                        <mxPoint x="560" y="470" as="targetPoint"/>
                    </mxGeometry>
                </mxCell>
                <mxCell id="16" value="Full" style="edgeStyle=orthogonalEdgeStyle;html=1;align=left;verticalAlign=top;endArrow=open;endSize=8;" edge="1" source="14" parent="1">
                    <mxGeometry x="-1" relative="1" as="geometry">
                        <mxPoint x="425" y="550" as="targetPoint"/>
                    </mxGeometry>
                </mxCell>
                <mxCell id="18" value="Make payment" style="rounded=1;whiteSpace=wrap;html=1;arcSize=40;" vertex="1" parent="1">
                    <mxGeometry x="365" y="550" width="120" height="40" as="geometry"/>
                </mxCell>
                <mxCell id="19" value="" style="edgeStyle=orthogonalEdgeStyle;html=1;verticalAlign=bottom;endArrow=open;endSize=8;entryX=0.5;entryY=0;entryDx=0;entryDy=0;" edge="1" source="18" parent="1" target="22">
                    <mxGeometry relative="1" as="geometry">
                        <mxPoint x="425" y="650" as="targetPoint"/>
                    </mxGeometry>
                </mxCell>
                <mxCell id="20" value="Make down payment" style="rounded=1;whiteSpace=wrap;html=1;arcSize=40;" vertex="1" parent="1">
                    <mxGeometry x="560" y="450" width="120" height="40" as="geometry"/>
                </mxCell>
                <mxCell id="21" value="" style="edgeStyle=orthogonalEdgeStyle;html=1;verticalAlign=bottom;endArrow=open;endSize=8;entryX=1;entryY=0.5;entryDx=0;entryDy=0;" edge="1" source="20" parent="1" target="22">
                    <mxGeometry relative="1" as="geometry">
                        <mxPoint x="620" y="550" as="targetPoint"/>
                        <Array as="points">
                            <mxPoint x="620" y="635"/>
                        </Array>
                    </mxGeometry>
                </mxCell>
                <mxCell id="22" value="" style="rhombus;" vertex="1" parent="1">
                    <mxGeometry x="410" y="620" width="30" height="30" as="geometry"/>
                </mxCell>
                <mxCell id="23" value="" style="edgeStyle=orthogonalEdgeStyle;html=1;align=left;verticalAlign=top;endArrow=open;endSize=8;entryX=0.489;entryY=-0.078;entryDx=0;entryDy=0;entryPerimeter=0;" edge="1" parent="1" source="22" target="24">
                    <mxGeometry x="-1" relative="1" as="geometry">
                        <mxPoint x="425" y="670" as="targetPoint"/>
                        <mxPoint x="425" y="660" as="sourcePoint"/>
                    </mxGeometry>
                </mxCell>
                <mxCell id="24" value="" style="ellipse;html=1;shape=endState;fillColor=strokeColor;" vertex="1" parent="1">
                    <mxGeometry x="410" y="680" width="30" height="30" as="geometry"/>
                </mxCell>
            </root>
        </mxGraphModel>
    </diagram>
</mxfile>